<?xml version="1.0" encoding="UTF-8"?>
<svg width="202px" height="15px" viewBox="0 0 202 15" version="1.1" xmlns="http://www.w3.org/2000/svg" xmlns:xlink="http://www.w3.org/1999/xlink">
    <!-- Generator: Sketch 60.1 (88133) - https://sketch.com -->
    <title>Group 4 Copy</title>
    <desc>Created with Sketch.</desc>
    <defs>
        <polygon id="path-1" points="0 0.872519084 11.1752672 0.872519084 11.1752672 13.9167939 0 13.9167939"></polygon>
        <polygon id="path-3" points="0.903664122 0.708396947 12.0059542 0.708396947 12.0059542 14.0819847 0.903664122 14.0819847"></polygon>
        <linearGradient x1="50%" y1="0%" x2="50%" y2="100%" id="linearGradient-5">
            <stop stop-color="#FF2C5B" offset="0%"></stop>
            <stop stop-color="#F0504E" offset="100%"></stop>
        </linearGradient>
        <polygon id="path-6" points="0.000152671756 0.366564885 11.1024427 0.366564885 11.1024427 13.740458 0.000152671756 13.740458"></polygon>
        <polygon id="path-8" points="0.531145038 0.366564885 13.6120611 0.366564885 13.6120611 13.740458 0.531145038 13.740458"></polygon>
        <polygon id="path-10" points="0.567175573 0.366412214 11.4496183 0.366412214 11.4496183 13.740458 0.567175573 13.740458"></polygon>
        <polygon id="path-12" points="0.000305343511 -7.63358779e-05 7.54960454 -7.63358779e-05 7.54960454 13.0438931 0.000305343511 13.0438931"></polygon>
        <linearGradient x1="50%" y1="0%" x2="50%" y2="100%" id="linearGradient-14">
            <stop stop-color="#FF2C5B" offset="0%"></stop>
            <stop stop-color="#F0504E" offset="100%"></stop>
        </linearGradient>
        <polygon id="path-15" points="0.000305343511 -7.63358779e-05 7.54960454 -7.63358779e-05 7.54960454 13.0438931 0.000305343511 13.0438931"></polygon>
    </defs>
    <g id="Page-1" stroke="none" stroke-width="1" fill="none" fill-rule="evenodd">
        <g id="A4-Copy-3" transform="translate(-376.000000, -40.000000)">
            <g id="Group-4-Copy" transform="translate(376.000000, 40.000000)">
                <g id="Group-2-Copy" transform="translate(24.900763, 0.000000)">
                    <g id="Group" transform="translate(0.000000, 0.526718)">
                        <g id="Group-3">
                            <mask id="mask-2" fill="white">
                                <use xlink:href="#path-1"></use>
                            </mask>
                            <g id="Clip-2"></g>
                            <path d="M7.52030534,11.0038168 C7.80732824,10.7961832 7.95083969,10.4480916 7.95083969,9.95954198 C7.95083969,9.45877863 7.81038168,9.10458015 7.52946565,8.89694656 C7.24854962,8.68931298 6.77221374,8.58549618 6.10045802,8.58549618 L3.35236641,8.58549618 L3.35236641,11.3152672 L6.10045802,11.3152672 C6.76,11.3152672 7.23328244,11.2114504 7.52030534,11.0038168 L7.52030534,11.0038168 Z M3.35236641,5.98396947 L5.75236641,5.98396947 C6.38748092,5.98396947 6.85160305,5.88625954 7.14473282,5.69083969 C7.4378626,5.49541985 7.58442748,5.18396947 7.58442748,4.75648855 C7.58442748,4.31679389 7.43480916,3.99312977 7.13557252,3.78549618 C6.83633588,3.5778626 6.37526718,3.4740458 5.75236641,3.4740458 L3.35236641,3.4740458 L3.35236641,5.98396947 Z M10.5523664,8.31984733 C10.9676336,8.87557252 11.1752672,9.55038168 11.1752672,10.3442748 C11.1752672,11.0664122 10.9859542,11.6938931 10.6073282,12.2312977 C10.2287023,12.7687023 9.68824427,13.1839695 8.9859542,13.4770992 C8.28366412,13.770229 7.45618321,13.9167939 6.50351145,13.9167939 L-0.000305343511,13.9167939 L-0.000305343511,0.872519084 L6.33862595,0.872519084 C7.70656489,0.872519084 8.79358779,1.1778626 9.59969466,1.78854962 C10.4058015,2.39923664 10.808855,3.22366412 10.808855,4.26183206 C10.808855,4.93358779 10.6317557,5.5259542 10.2775573,6.0389313 C9.92335878,6.5519084 9.42259542,6.92442748 8.77526718,7.15648855 C9.54473282,7.37633588 10.1370992,7.76412214 10.5523664,8.31984733 L10.5523664,8.31984733 Z" id="Fill-1" fill="#FFFFFF" mask="url(#mask-2)"></path>
                        </g>
                        <path d="M21.9845802,5.93832061 C22.3143511,5.71236641 22.4792366,5.36122137 22.4792366,4.8848855 C22.4792366,4.38412214 22.3174046,4.02381679 21.9937405,3.80396947 C21.6700763,3.58412214 21.1357252,3.47419847 20.390687,3.47419847 L18.228855,3.47419847 L18.228855,6.27725191 L20.390687,6.27725191 C21.1235115,6.27725191 21.6548092,6.16427481 21.9845802,5.93832061 L21.9845802,5.93832061 Z M26.2166412,13.9169466 L22.5708397,13.9169466 L20.8853435,9.57496183 C20.6899237,9.08641221 20.2319084,8.8421374 19.5112977,8.8421374 L18.2654962,8.8421374 L18.2654962,13.9169466 L14.8761832,13.9169466 L14.8761832,0.872671756 L20.9403053,0.872671756 C22.5158779,0.872671756 23.7006107,1.21160305 24.4945038,1.88946565 C25.2883969,2.56732824 25.6853435,3.53526718 25.6853435,4.79328244 C25.6853435,5.67267176 25.450229,6.4329771 24.98,7.07419847 C24.509771,7.71541985 23.8471756,8.17038168 22.9922137,8.43908397 C23.358626,8.51236641 23.6883969,8.68335878 23.9815267,8.95206107 C24.2746565,9.22076336 24.5067176,9.5810687 24.6777099,10.0329771 L26.2166412,13.9169466 Z" id="Fill-4" fill="#FFFFFF"></path>
                        <path d="M33.8926718,8.64076336 L37.4468702,8.64076336 L35.669771,4.51862595 L33.8926718,8.64076336 Z M39.718626,13.9170992 L38.5644275,11.2239695 L32.7751145,11.2239695 L31.620916,13.9170992 L28.1766412,13.9170992 L34.2774046,0.872824427 L36.988855,0.872824427 L43.1079389,13.9170992 L39.718626,13.9170992 Z" id="Fill-6" fill="#FFFFFF"></path>
                        <g id="Group-10" transform="translate(44.274809, 0.000000)">
                            <mask id="mask-4" fill="white">
                                <use xlink:href="#path-3"></use>
                            </mask>
                            <g id="Clip-9"></g>
                            <path d="M4.04564885,13.2483969 C3.03801527,12.6926718 2.26244275,11.9079389 1.7189313,10.8941985 C1.17541985,9.88045802 0.903664122,8.70793893 0.903664122,7.37664122 C0.903664122,6.05755725 1.17541985,4.89419847 1.7189313,3.88656489 C2.26244275,2.8789313 3.03801527,2.09725191 4.04564885,1.54152672 C5.05328244,0.985801527 6.23496183,0.707938931 7.59068702,0.707938931 C8.44564885,0.707938931 9.27312977,0.836183206 10.0731298,1.09267176 C10.8731298,1.34916031 11.5174046,1.69725191 12.0059542,2.13694656 L10.9616794,4.57358779 C9.89908397,3.80412214 8.79984733,3.41938931 7.66396947,3.41938931 C6.61358779,3.41938931 5.80748092,3.75221374 5.24564885,4.4178626 C4.68381679,5.08351145 4.40290076,6.06977099 4.40290076,7.37664122 C4.40290076,8.69572519 4.68381679,9.69114504 5.24564885,10.3629008 C5.80748092,11.0346565 6.61358779,11.3705344 7.66396947,11.3705344 C8.79984733,11.3705344 9.89908397,10.9858015 10.9616794,10.2163359 L12.0059542,12.6529771 C11.5174046,13.0926718 10.8731298,13.4407634 10.0731298,13.6972519 C9.27312977,13.9537405 8.44564885,14.0819847 7.59068702,14.0819847 C6.23496183,14.0819847 5.05328244,13.8041221 4.04564885,13.2483969" id="Fill-8" fill="#FFFFFF" mask="url(#mask-4)"></path>
                        </g>
                        <path d="M63.9193893,6.4789313 L63.9193893,7.99954198 L68.8421942,13.5787209 C69.0320235,13.7938607 69.305117,13.9170992 69.5920321,13.9170992 L71.1835115,13.9170992 C71.6967334,13.9170992 72.112782,13.5010506 72.112782,12.9878287 C72.112782,12.7633445 72.0315211,12.5464484 71.8840178,12.3772268 L67.2537405,7.06519084 L67.2537405,7.06519084 L71.6507675,2.34711105 C71.9808476,1.99292982 71.9613098,1.43822639 71.6071286,1.10814626 C71.4448553,0.956915222 71.2312842,0.872824427 71.0094656,0.872824427 L69.4378356,0.872824427 C69.1553528,0.872824427 68.8860472,0.992298352 68.696472,1.20172081 L63.9193893,6.4789313 L63.9193893,6.4789313 Z" id="Fill-11" fill="url(#linearGradient-5)"></path>
                        <polygon id="Fill-13" fill="#FFFFFF" points="75.0410687 13.9170992 75.0410687 0.872824427 84.3479389 0.872824427 84.3479389 3.51099237 78.3937405 3.51099237 78.3937405 5.9659542 83.9632061 5.9659542 83.9632061 8.60412214 78.3937405 8.60412214 78.3937405 11.2789313 84.3479389 11.2789313 84.3479389 13.9170992"></polygon>
                        <polygon id="Fill-15" fill="#FFFFFF" points="91.3645802 13.9170992 91.3645802 3.65755725 87.4806107 3.65755725 87.4806107 0.872824427 98.7294656 0.872824427 98.7294656 3.65755725 94.8454962 3.65755725 94.8454962 13.9170992"></polygon>
                        <polygon id="Fill-18" fill="#FFFFFF" points="60.4748092 13.9175573 63.919084 13.9175573 63.919084 0.873282443 60.4748092 0.873282443"></polygon>
                    </g>
                    <g id="Group-14" transform="translate(105.343511, 0.000000)">
                        <g id="Group-3" transform="translate(0.000000, 0.159954)">
                            <mask id="mask-7" fill="white">
                                <use xlink:href="#path-6"></use>
                            </mask>
                            <g id="Clip-2"></g>
                            <path d="M3.1421374,12.9070229 C2.13450382,12.3512977 1.3589313,11.5665649 0.815419847,10.5528244 C0.271908397,9.53908397 0.000152671756,8.36656489 0.000152671756,7.03526718 C0.000152671756,5.71618321 0.271908397,4.55282443 0.815419847,3.54519084 C1.3589313,2.53755725 2.13450382,1.75587786 3.1421374,1.20015267 C4.14977099,0.644427481 5.33145038,0.366564885 6.68717557,0.366564885 C7.5421374,0.366564885 8.36961832,0.49480916 9.16961832,0.75129771 C9.96961832,1.00778626 10.6138931,1.35587786 11.1024427,1.79557252 L10.0581679,4.23221374 C8.99557252,3.46274809 7.89633588,3.07801527 6.76045802,3.07801527 C5.71007634,3.07801527 4.90396947,3.41083969 4.3421374,4.07648855 C3.78030534,4.7421374 3.49938931,5.72839695 3.49938931,7.03526718 C3.49938931,8.35435115 3.78030534,9.34977099 4.3421374,10.0215267 C4.90396947,10.6932824 5.71007634,11.0291603 6.76045802,11.0291603 C7.89633588,11.0291603 8.99557252,10.6444275 10.0581679,9.87496183 L11.1024427,12.3116031 C10.6138931,12.7512977 9.96961832,13.0993893 9.16961832,13.3558779 C8.36961832,13.6123664 7.5421374,13.7406107 6.68717557,13.7406107 C5.33145038,13.7406107 4.14977099,13.4627481 3.1421374,12.9070229" id="Fill-1" fill="#FFFFFF" mask="url(#mask-7)"></path>
                        </g>
                        <g id="Group-6" transform="translate(13.740458, 0.159954)">
                            <mask id="mask-9" fill="white">
                                <use xlink:href="#path-8"></use>
                            </mask>
                            <g id="Clip-5"></g>
                            <path d="M9.38916031,10.0764885 C9.9448855,9.38030534 10.2227481,8.36656489 10.2227481,7.03526718 C10.2227481,5.71618321 9.9448855,4.71160305 9.38916031,4.02152672 C8.83343511,3.33145038 8.0670229,2.98641221 7.08992366,2.98641221 C6.11282443,2.98641221 5.34946565,3.32839695 4.79984733,4.01236641 C4.25022901,4.69633588 3.97541985,5.70396947 3.97541985,7.03526718 C3.97541985,8.37877863 4.25022901,9.39557252 4.79984733,10.0856489 C5.34946565,10.7757252 6.11282443,11.1207634 7.08992366,11.1207634 C8.0670229,11.1207634 8.83343511,10.7726718 9.38916031,10.0764885 M3.60900763,12.9253435 C2.61969466,12.3818321 1.85938931,11.6032061 1.3280916,10.5894656 C0.796793893,9.57572519 0.531145038,8.39099237 0.531145038,7.03526718 C0.531145038,5.67954198 0.799847328,4.50091603 1.33725191,3.49938931 C1.87465649,2.4978626 2.63496183,1.72534351 3.61816794,1.18183206 C4.60137405,0.638320611 5.75862595,0.366564885 7.08992366,0.366564885 C8.42122137,0.366564885 9.57847328,0.638320611 10.5616794,1.18183206 C11.5448855,1.72534351 12.299084,2.4978626 12.8242748,3.49938931 C13.3494656,4.50091603 13.6120611,5.67954198 13.6120611,7.03526718 C13.6120611,8.39099237 13.3494656,9.57572519 12.8242748,10.5894656 C12.299084,11.6032061 11.5448855,12.3818321 10.5616794,12.9253435 C9.57847328,13.468855 8.42122137,13.7406107 7.08992366,13.7406107 C5.75862595,13.7406107 4.59832061,13.468855 3.60900763,12.9253435" id="Fill-4" fill="#FFFFFF" mask="url(#mask-9)"></path>
                        </g>
                        <path d="M36.4764885,10.9878931 C37.7467176,10.9878931 38.6963359,10.6733893 39.3253435,10.0443817 C39.9543511,9.41537405 40.268855,8.46575573 40.268855,7.19552672 C40.268855,4.69170992 39.0047328,3.43980153 36.4764885,3.43980153 L34.8276336,3.43980153 L34.8276336,10.9878931 L36.4764885,10.9878931 Z M31.3833588,0.691709924 L36.7146565,0.691709924 C38.1558779,0.691709924 39.398626,0.951251908 40.4429008,1.47033588 C41.4871756,1.98941985 42.2871756,2.73751145 42.8429008,3.71461069 C43.398626,4.69170992 43.6764885,5.85201527 43.6764885,7.19552672 C43.6764885,8.55125191 43.4016794,9.72071756 42.8520611,10.7039237 C42.3024427,11.6871298 41.5054962,12.4382748 40.4612214,12.9573588 C39.4169466,13.4764427 38.1680916,13.7359847 36.7146565,13.7359847 L31.3833588,13.7359847 L31.3833588,0.691709924 Z" id="Fill-7" fill="#FFFFFF"></path>
                        <polygon id="Fill-9" fill="#FFFFFF" points="47.7068702 13.7356794 47.7068702 0.69140458 57.0137405 0.69140458 57.0137405 3.32957252 51.059542 3.32957252 51.059542 5.78453435 56.6290076 5.78453435 56.6290076 8.42270229 51.059542 8.42270229 51.059542 11.0975115 57.0137405 11.0975115 57.0137405 13.7356794"></polygon>
                        <g id="Group-13" transform="translate(59.541985, 0.159954)">
                            <mask id="mask-11" fill="white">
                                <use xlink:href="#path-10"></use>
                            </mask>
                            <g id="Clip-12"></g>
                            <path d="M2.89389313,13.3557252 C1.94122137,13.0992366 1.16564885,12.751145 0.567175573,12.3114504 L1.6480916,9.87480916 C2.28320611,10.2778626 2.95801527,10.5862595 3.67251908,10.8 C4.3870229,11.0137405 5.10458015,11.1206107 5.82519084,11.1206107 C6.55801527,11.1206107 7.11984733,11.0198473 7.51068702,10.8183206 C7.90152672,10.6167939 8.09694656,10.3328244 8.09694656,9.96641221 C8.09694656,9.63664122 7.91984733,9.3648855 7.56564885,9.15114504 C7.21145038,8.93740458 6.54580153,8.72671756 5.56870229,8.51908397 C4.3351145,8.27480916 3.37633588,7.97251908 2.69236641,7.61221374 C2.00839695,7.2519084 1.52900763,6.82748092 1.25419847,6.3389313 C0.979389313,5.85038168 0.841984733,5.25801527 0.841984733,4.56183206 C0.841984733,3.76793893 1.06793893,3.05038168 1.51984733,2.40916031 C1.97175573,1.76793893 2.60687023,1.26717557 3.42519084,0.906870229 C4.24351145,0.546564885 5.1778626,0.366412214 6.22824427,0.366412214 C7.16870229,0.366412214 8.08167939,0.497709924 8.96717557,0.760305344 C9.85267176,1.02290076 10.5458015,1.36793893 11.0465649,1.79541985 L9.98396947,4.23206107 C9.40992366,3.82900763 8.80534351,3.52061069 8.17022901,3.30687023 C7.5351145,3.09312977 6.9,2.98625954 6.2648855,2.98625954 C5.64198473,2.98625954 5.14122137,3.10534351 4.76259542,3.34351145 C4.38396947,3.58167939 4.19465649,3.90229008 4.19465649,4.30534351 C4.19465649,4.52519084 4.26183206,4.70839695 4.39618321,4.85496183 C4.53053435,5.00152672 4.78091603,5.14503817 5.14732824,5.28549618 C5.51374046,5.4259542 6.06335878,5.57557252 6.79618321,5.73435115 C7.98091603,5.99083969 8.91221374,6.29923664 9.59007634,6.65954198 C10.2679389,7.01984733 10.7473282,7.44122137 11.0282443,7.92366412 C11.3091603,8.40610687 11.4496183,8.98320611 11.4496183,9.65496183 C11.4496183,10.9251908 10.9549618,11.9236641 9.96564885,12.6503817 C8.97633588,13.3770992 7.58396947,13.740458 5.78854962,13.740458 C4.81145038,13.740458 3.84656489,13.6122137 2.89389313,13.3557252" id="Fill-11" fill="#FFFFFF" mask="url(#mask-11)"></path>
                        </g>
                    </g>
                </g>
                <g id="Group-3" transform="translate(0.000000, 0.526718)">
                    <mask id="mask-13" fill="white">
                        <use xlink:href="#path-12"></use>
                    </mask>
                    <g id="Clip-2"></g>
                    <path d="M0.000305343511,5.60572519 L0.000305343511,7.12633588 L4.78198473,12.5461832 C5.06137405,12.8622137 5.46290076,13.0438931 5.88427481,13.0438931 L6.07664122,13.0438931 C7.33770992,13.0438931 8.0140458,11.5599237 7.18503817,10.6087786 L4.2048855,7.19198473 C3.71022901,6.6240458 3.72396947,5.77366412 4.23694656,5.2240458 L6.80183206,2.47137405 C7.67816794,1.53244275 7.01099237,-0.000381679389 5.7270229,-0.000381679389 C5.31175573,-0.000381679389 4.91633588,0.17519084 4.63847328,0.483587786 L0.000305343511,5.60572519 Z" id="Fill-1" fill="url(#linearGradient-14)" mask="url(#mask-13)"></path>
                </g>
                <g id="Group-3-Copy" transform="translate(12.977099, 7.396947) scale(-1, 1) translate(-12.977099, -7.396947) translate(9.160305, 0.526718)">
                    <mask id="mask-16" fill="white">
                        <use xlink:href="#path-15"></use>
                    </mask>
                    <g id="Clip-2"></g>
                    <path d="M0.000305343511,5.60572519 L0.000305343511,7.12633588 L4.78198473,12.5461832 C5.06137405,12.8622137 5.46290076,13.0438931 5.88427481,13.0438931 L6.07664122,13.0438931 C7.33770992,13.0438931 8.0140458,11.5599237 7.18503817,10.6087786 L4.2048855,7.19198473 C3.71022901,6.6240458 3.72396947,5.77366412 4.23694656,5.2240458 L6.80183206,2.47137405 C7.67816794,1.53244275 7.01099237,-0.000381679389 5.7270229,-0.000381679389 C5.31175573,-0.000381679389 4.91633588,0.17519084 4.63847328,0.483587786 L0.000305343511,5.60572519 Z" id="Fill-1" fill="url(#linearGradient-14)" mask="url(#mask-16)"></path>
                </g>
            </g>
        </g>
    </g>
</svg>